<svg id="visual" viewBox="0 0 900 600" width="900" height="600" xmlns="http://www.w3.org/2000/svg" xmlns:xlink="http://www.w3.org/1999/xlink" version="1.1"><rect x="0" y="0" width="900" height="600" fill="#a667fc"></rect><defs><linearGradient id="grad1_0" x1="33.3%" y1="0%" x2="100%" y2="100%"><stop offset="20%" stop-color="#000000" stop-opacity="1"></stop><stop offset="80%" stop-color="#000000" stop-opacity="1"></stop></linearGradient></defs><defs><linearGradient id="grad1_1" x1="33.3%" y1="0%" x2="100%" y2="100%"><stop offset="20%" stop-color="#000000" stop-opacity="1"></stop><stop offset="80%" stop-color="#250084" stop-opacity="1"></stop></linearGradient></defs><defs><linearGradient id="grad1_2" x1="33.3%" y1="0%" x2="100%" y2="100%"><stop offset="20%" stop-color="#531cab" stop-opacity="1"></stop><stop offset="80%" stop-color="#250084" stop-opacity="1"></stop></linearGradient></defs><defs><linearGradient id="grad1_3" x1="33.3%" y1="0%" x2="100%" y2="100%"><stop offset="20%" stop-color="#531cab" stop-opacity="1"></stop><stop offset="80%" stop-color="#7d42d3" stop-opacity="1"></stop></linearGradient></defs><defs><linearGradient id="grad1_4" x1="33.3%" y1="0%" x2="100%" y2="100%"><stop offset="20%" stop-color="#a667fc" stop-opacity="1"></stop><stop offset="80%" stop-color="#7d42d3" stop-opacity="1"></stop></linearGradient></defs><defs><linearGradient id="grad2_0" x1="0%" y1="0%" x2="66.7%" y2="100%"><stop offset="20%" stop-color="#000000" stop-opacity="1"></stop><stop offset="80%" stop-color="#000000" stop-opacity="1"></stop></linearGradient></defs><defs><linearGradient id="grad2_1" x1="0%" y1="0%" x2="66.7%" y2="100%"><stop offset="20%" stop-color="#250084" stop-opacity="1"></stop><stop offset="80%" stop-color="#000000" stop-opacity="1"></stop></linearGradient></defs><defs><linearGradient id="grad2_2" x1="0%" y1="0%" x2="66.7%" y2="100%"><stop offset="20%" stop-color="#250084" stop-opacity="1"></stop><stop offset="80%" stop-color="#531cab" stop-opacity="1"></stop></linearGradient></defs><defs><linearGradient id="grad2_3" x1="0%" y1="0%" x2="66.7%" y2="100%"><stop offset="20%" stop-color="#7d42d3" stop-opacity="1"></stop><stop offset="80%" stop-color="#531cab" stop-opacity="1"></stop></linearGradient></defs><defs><linearGradient id="grad2_4" x1="0%" y1="0%" x2="66.7%" y2="100%"><stop offset="20%" stop-color="#7d42d3" stop-opacity="1"></stop><stop offset="80%" stop-color="#a667fc" stop-opacity="1"></stop></linearGradient></defs><g transform="translate(900, 0)"><path d="M0 486.7C-44.2 478.5 -88.3 470.2 -118.5 442.4C-148.7 414.6 -165 367.4 -204 353.3C-243 339.3 -304.8 358.4 -344.2 344.2C-383.6 329.9 -400.7 282.2 -415.7 240C-430.7 197.8 -443.5 161 -455 121.9C-466.4 82.8 -476.6 41.4 -486.7 0L0 0Z" fill="#9155e7"></path><path d="M0 389.4C-35.3 382.8 -70.7 376.1 -94.8 353.9C-119 331.7 -132 293.9 -163.2 282.7C-194.4 271.4 -243.8 286.8 -275.3 275.3C-306.9 263.9 -320.6 225.8 -332.6 192C-344.5 158.2 -354.8 128.8 -364 97.5C-373.1 66.3 -381.3 33.1 -389.4 0L0 0Z" fill="#6830bf"></path><path d="M0 292C-26.5 287.1 -53 282.1 -71.1 265.4C-89.2 248.8 -99 220.4 -122.4 212C-145.8 203.6 -182.9 215.1 -206.5 206.5C-230.2 198 -240.4 169.3 -249.4 144C-258.4 118.7 -266.1 96.6 -273 73.1C-279.9 49.7 -286 24.8 -292 0L0 0Z" fill="#3d0497"></path><path d="M0 194.7C-17.7 191.4 -35.3 188.1 -47.4 177C-59.5 165.9 -66 147 -81.6 141.3C-97.2 135.7 -121.9 143.4 -137.7 137.7C-153.4 132 -160.3 112.9 -166.3 96C-172.3 79.1 -177.4 64.4 -182 48.8C-186.6 33.1 -190.6 16.6 -194.7 0L0 0Z" fill="#000072"></path><path d="M0 97.3C-8.8 95.7 -17.7 94 -23.7 88.5C-29.7 82.9 -33 73.5 -40.8 70.7C-48.6 67.9 -61 71.7 -68.8 68.8C-76.7 66 -80.1 56.4 -83.1 48C-86.1 39.6 -88.7 32.2 -91 24.4C-93.3 16.6 -95.3 8.3 -97.3 0L0 0Z" fill="#000000"></path></g><g transform="translate(0, 600)"><path d="M0 -486.7C40.1 -464.3 80.2 -441.9 111.8 -417.3C143.4 -392.6 166.5 -365.7 206.5 -357.7C246.5 -349.6 303.5 -360.4 344.2 -344.2C384.9 -327.9 409.3 -284.6 418.3 -241.5C427.3 -198.4 421 -155.4 429.8 -115.2C438.7 -75 462.7 -37.5 486.7 0L0 0Z" fill="#9155e7"></path><path d="M0 -389.4C32.1 -371.5 64.2 -353.5 89.4 -333.8C114.7 -314.1 133.2 -292.6 165.2 -286.1C197.2 -279.7 242.8 -288.3 275.3 -275.3C307.9 -262.4 327.4 -227.7 334.6 -193.2C341.9 -158.7 336.8 -124.3 343.9 -92.1C350.9 -60 370.2 -30 389.4 0L0 0Z" fill="#6830bf"></path><path d="M0 -292C24.1 -278.6 48.1 -265.2 67.1 -250.4C86 -235.6 99.9 -219.4 123.9 -214.6C147.9 -209.8 182.1 -216.3 206.5 -206.5C230.9 -196.8 245.6 -170.8 251 -144.9C256.4 -119 252.6 -93.2 257.9 -69.1C263.2 -45 277.6 -22.5 292 0L0 0Z" fill="#3d0497"></path><path d="M0 -194.7C16 -185.7 32.1 -176.8 44.7 -166.9C57.4 -157 66.6 -146.3 82.6 -143.1C98.6 -139.8 121.4 -144.2 137.7 -137.7C153.9 -131.2 163.7 -113.9 167.3 -96.6C170.9 -79.3 168.4 -62.2 171.9 -46.1C175.5 -30 185.1 -15 194.7 0L0 0Z" fill="#000072"></path><path d="M0 -97.3C8 -92.9 16 -88.4 22.4 -83.5C28.7 -78.5 33.3 -73.1 41.3 -71.5C49.3 -69.9 60.7 -72.1 68.8 -68.8C77 -65.6 81.9 -56.9 83.7 -48.3C85.5 -39.7 84.2 -31.1 86 -23C87.7 -15 92.5 -7.5 97.3 0L0 0Z" fill="#000000"></path></g></svg>